<?xml version="1.0" encoding="utf-8"?>
<!-- Generator: Adobe Illustrator 18.0.0, SVG Export Plug-In . SVG Version: 6.00 Build 0)  -->
<!DOCTYPE svg PUBLIC "-//W3C//DTD SVG 1.1//EN" "http://www.w3.org/Graphics/SVG/1.1/DTD/svg11.dtd">
<svg version="1.1" xmlns="http://www.w3.org/2000/svg" xmlns:xlink="http://www.w3.org/1999/xlink" x="0px" y="0px"
	 viewBox="0 0 3000 1250" enable-background="new 0 0 3000 1250" xml:space="preserve">
<g id="Layer_7">
	<path fill="#F26522" d="M1122.2,967.8c0-227.5,0-497.5,0-497.5H946.2L1380,173l409.5,236.6h94l-143.4-100.2V109.3h-117.5v118
		L1380,57.7L743,524.9h312.5v442.9c0,0-491.4,12.1-624.9,69.8c-8.4,3.6,979.8-75.8,1353,154.7c100.1-60.7,100.1-60.7,100.1-60.7
		s-267-99.7-333.7-106c185,11.9,445.9,69.8,455,83.3c9.1,13.6,88-41,88-41S1756.2,958.7,1122.2,967.8z"/>
</g>
<g id="Layer_6">
	<g>
		<path fill="#231F20" d="M144.1,924.9l-43.4-361.5h66.8l34.7,303.5l135.7-303.5h71.7L241.8,924.9H144.1z"/>
		<path fill="#231F20" d="M396,840.8c0-7.6,0.5-15.7,2.2-23.9l26.6-150.4c12.5-71.1,52.7-108.6,152-108.6
			c82.5,0,121.1,42.3,121.1,95.5c0,6.5-0.5,12.5-1.6,19l-26.1,147.7c-13,73.3-51,110.2-155.8,110.2C431.8,930.4,396,893.5,396,840.8
			z M628.9,672.5c0.5-4.3,1.1-8.7,1.1-12.5c0-27.1-15.7-42.9-60.3-42.9c-48.3,0-72.2,18.5-78.7,55.4l-25,141.7
			c-1.1,6.5-1.6,12.5-1.6,17.9c0,25.5,14.7,39.1,60.8,39.1c49.4,0,72.2-20.1,78.7-56.5L628.9,672.5z"/>
		<path fill="#231F20" d="M788.5,563.4h67.3l-53.2,302.4h149.3l-10.3,59.2H725L788.5,563.4z"/>
	</g>
</g>
<g id="Layer_5">
	<g>
		<path fill="#F26522" d="M1443.9,771.9H1313l-26.6,153.1h-67.3l63.5-361.5h67.3l-26.1,149.3h130.8l26.1-149.3h67.3l-63.5,361.5
			h-67.3L1443.9,771.9z"/>
		<path fill="#F26522" d="M1574.7,840.8c0-7.6,0.5-15.7,2.2-23.9l26.6-150.4c12.5-71.1,52.7-108.6,152-108.6
			c82.5,0,121.1,42.3,121.1,95.5c0,6.5-0.5,12.5-1.6,19l-26.1,147.7c-13,73.3-51,110.2-155.8,110.2
			C1610.5,930.4,1574.7,893.5,1574.7,840.8z M1807.6,672.5c0.5-4.3,1.1-8.7,1.1-12.5c0-27.1-15.7-42.9-60.3-42.9
			c-48.3,0-72.2,18.5-78.7,55.4l-25,141.7c-1.1,6.5-1.6,12.5-1.6,17.9c0,25.5,14.7,39.1,60.8,39.1c49.4,0,72.2-20.1,78.7-56.5
			L1807.6,672.5z"/>
		<path fill="#F26522" d="M2227.2,692.6L2123,877.7h-73.3L2015,692.1l-52.1,232.9h-66.2l82.5-361.5h71.7l47.2,244.8l136.8-244.8
			h73.8l-45.6,361.5h-67.3L2227.2,692.6z"/>
		<path fill="#F26522" d="M2401,563.4h222l-10.9,59.2H2458l-15.2,86.3h142.8l-10.3,59.2h-142.8l-17.4,97.7h154.2l-9.8,59.2h-222
			L2401,563.4z"/>
		<path fill="#F26522" d="M2620.8,908.1l14.7-52.1c34.7,10.3,64.6,17.4,98.3,17.4c51,0,59.7-10.9,66.2-46.7
			c1.6-9.2,2.7-16.8,2.7-22.8c0-19-11.9-23.3-59.7-35.8c-63-15.7-81.4-40.7-81.4-79.3c0-10.9,1.6-22.8,3.8-35.8
			c13.6-76,38-95,133-95c32,0,66.8,3.8,101,14.1l-11.4,55.9c-34.2-8.1-65.1-12.5-95-12.5c-47.2,0-56.5,6.5-62.4,41.8
			c-1.6,9.2-2.7,16.8-2.7,22.8c0,17.9,11.9,23.9,57.5,35.8c65.1,16.8,85.2,35.8,85.2,75.5c0,10.3-1.6,21.7-3.8,35.3
			c-13,73.3-34.2,103.7-137.9,103.7C2698.5,930.4,2650.7,922.8,2620.8,908.1z"/>
	</g>
</g>
</svg>
